<?xml version="1.0" standalone="no"?>
<!DOCTYPE svg PUBLIC "-//W3C//DTD SVG 20010904//EN"
 "http://www.w3.org/TR/2001/REC-SVG-20010904/DTD/svg10.dtd">
<svg version="1.0" xmlns="http://www.w3.org/2000/svg"
 width="500.000000pt" height="500.000000pt" viewBox="0 0 500.000000 500.000000"
 preserveAspectRatio="xMidYMid meet">

<g transform="translate(0.000000,500.000000) scale(0.100000,-0.100000)"
fill="#000000" stroke="none">
<path d="M1764 1896 c-17 -8 -34 -21 -38 -31 -3 -9 -6 -70 -6 -135 0 -116 1
-119 26 -139 15 -12 38 -21 51 -21 16 0 27 -7 30 -20 4 -14 14 -20 35 -20 26
0 29 3 23 23 -10 30 -10 27 3 72 15 51 15 182 1 225 -8 22 -22 37 -45 46 -40
17 -41 17 -80 0z m64 -44 c9 -6 12 -37 10 -118 l-3 -109 -30 0 -30 0 -3 104
c-3 120 11 151 56 123z"/>
<path d="M2472 1895 c-71 -31 -62 -108 19 -176 40 -33 49 -47 47 -68 -2 -20
-9 -27 -31 -29 -16 -2 -35 2 -43 9 -12 10 -18 9 -32 -5 -16 -16 -16 -18 7 -37
51 -42 142 -12 156 51 8 38 -7 66 -67 119 -39 34 -48 49 -46 70 2 20 8 26 28
26 20 0 26 -6 28 -27 3 -22 9 -28 28 -28 21 0 24 4 24 40 0 27 -5 42 -17 48
-36 18 -69 20 -101 7z"/>
<path d="M1950 1776 c0 -130 10 -180 40 -196 31 -17 86 -11 114 11 26 20 26
21 26 165 l0 144 -25 0 -25 0 0 -135 c0 -116 -2 -135 -17 -144 -11 -6 -24 -6
-35 0 -16 9 -18 26 -18 144 l0 135 -30 0 -30 0 0 -124z"/>
<path d="M2205 1820 c19 -44 39 -88 45 -99 5 -11 10 -49 10 -85 0 -64 1 -66
25 -66 24 0 25 2 25 69 0 56 6 81 34 142 51 114 52 119 21 119 -22 0 -30 -9
-54 -62 l-29 -63 -28 63 c-24 55 -31 62 -55 62 l-28 0 34 -80z"/>
<path d="M2650 1735 l0 -165 85 0 c84 0 85 0 85 25 0 24 -3 25 -55 25 l-55 0
0 140 0 140 -30 0 -30 0 0 -165z"/>
<path d="M2917 1893 c-3 -4 -22 -73 -42 -153 -21 -80 -40 -151 -42 -157 -4 -9
5 -13 26 -13 24 0 31 4 31 19 0 40 11 51 51 51 36 0 39 -2 45 -35 5 -30 10
-35 35 -35 16 0 29 1 29 3 -1 1 -20 74 -44 162 -37 138 -45 160 -63 163 -12 2
-23 0 -26 -5z m39 -153 l11 -50 -30 0 c-21 0 -28 4 -24 14 3 8 9 31 13 50 9
49 18 45 30 -14z"/>
<path d="M3090 1736 l0 -166 25 0 25 0 1 108 0 107 41 -107 c39 -102 43 -108
70 -108 l28 0 0 165 0 165 -31 0 -31 0 4 -100 c2 -54 3 -98 1 -97 -1 1 -17 45
-35 97 -33 91 -35 95 -66 98 l-32 3 0 -165z"/>
</g>
</svg>
